HIERARCHY
ROOT Hips
{
	OFFSET 0.00000 0.00000 0.00000
	CHANNELS 6 Xposition Yposition Zposition Zrotation Yrotation Xrotation 
	JOINT LHipJoint
	{
		OFFSET 0 0 0
		CHANNELS 3 Zrotation Yrotation Xrotation
		JOINT LeftHip
		{
			OFFSET 1.39187 -1.60231 0.69152
			CHANNELS 3 Zrotation Yrotation Xrotation
			JOINT LeftKnee
			{
				OFFSET 2.43314 -6.68499 0.00000
				CHANNELS 3 Zrotation Yrotation Xrotation
				JOINT LeftAnkle
				{
					OFFSET 2.32059 -6.37578 0.00000
					CHANNELS 3 Zrotation Yrotation Xrotation
					JOINT LeftToe
					{
						OFFSET 0.23021 -0.63250 1.71305
						CHANNELS 3 Zrotation Yrotation Xrotation
						End Site
						{
							OFFSET 0.00000 -0.00000 0.91647
						}
					}
				}
			}
		}
	}
	JOINT RHipJoint
	{
		OFFSET 0 0 0
		CHANNELS 3 Zrotation Yrotation Xrotation
		JOINT RightHip
		{
			OFFSET -1.19407 -1.60231 0.69152
			CHANNELS 3 Zrotation Yrotation Xrotation
			JOINT RightKnee
			{
				OFFSET -2.44411 -6.71513 0.00000
				CHANNELS 3 Zrotation Yrotation Xrotation
				JOINT RightAnkle
				{
					OFFSET -2.31924 -6.37207 0.00000
					CHANNELS 3 Zrotation Yrotation Xrotation
					JOINT RightToe
					{
						OFFSET -0.19473 -0.53502 1.87724
						CHANNELS 3 Zrotation Yrotation Xrotation
						End Site
						{
							OFFSET -0.00000 -0.00000 0.98293
						}
					}
				}
			}
		}
	}
	JOINT lowerback
	{
		OFFSET 0 0 0
		CHANNELS 3 Zrotation Yrotation Xrotation
		JOINT Chest
		{
			OFFSET -0.01120 1.87307 0.09613
			CHANNELS 3 Zrotation Yrotation Xrotation
			JOINT Chest2
			{
				OFFSET 0.01099 1.87818 0.04834
				CHANNELS 3 Zrotation Yrotation Xrotation
				JOINT lowerneck
				{
					OFFSET 0 0 0
					CHANNELS 3 Zrotation Yrotation Xrotation
					JOINT Neck
					{
						OFFSET 0.01702 1.40324 -0.12579
						CHANNELS 3 Zrotation Yrotation Xrotation
						JOINT Head
						{
							OFFSET -0.04239 1.38587 -0.01614
							CHANNELS 3 Zrotation Yrotation Xrotation
							End Site
							{
								OFFSET -0.02510 1.47031 -0.00154
							}
						}
					}
				}
				JOINT LeftCollar
				{
					OFFSET 0 0 0
					CHANNELS 3 Zrotation Yrotation Xrotation
					JOINT LeftShoulder
					{
						OFFSET 2.95699 0.62343 0.11653
CHANNELS 3 Zrotation Xrotation Yrotation
						JOINT LeftElbow
						{
OFFSET 0 -4.683820 -0.000000
CHANNELS 3 Zrotation Xrotation Yrotation
							JOINT LeftWrist
							{
OFFSET 0 -2.981240 -0.000000
CHANNELS 3 Zrotation Xrotation Yrotation
								JOINT lhand
								{
									OFFSET 0 0 0
CHANNELS 3 Zrotation Xrotation Yrotation
									JOINT LFingers
									{
OFFSET 0 -0.707590 0.000000
CHANNELS 3 Zrotation Xrotation Yrotation
										End Site
										{
OFFSET 0 -0.570480 0.000000
										}
									}
								}
								JOINT LThumb
								{
OFFSET 0 0.000000 0.000000
CHANNELS 3 Zrotation Xrotation Yrotation
									End Site
									{
OFFSET 0 -0.579190 0.579190
									}
								}
							}
						}
					}
				}
				JOINT RightCollar
				{
					OFFSET 0 0 0
					CHANNELS 3 Zrotation Yrotation Xrotation
					JOINT RightShoulder
					{
						OFFSET -2.99027 0.88714 -0.02793
CHANNELS 3 Zrotation Xrotation Yrotation
						JOINT RightElbow
						{
OFFSET 0 -4.758760 -0.000000
CHANNELS 3 Zrotation Xrotation Yrotation
							JOINT RightWrist
							{
OFFSET 0 -2.932930 -0.000000
CHANNELS 3 Zrotation Xrotation Yrotation
								JOINT rhand
								{
									OFFSET 0 0 0
CHANNELS 3 Zrotation Xrotation Yrotation
									JOINT RFingers
									{
OFFSET 0 -0.831750 0.000000
CHANNELS 3 Zrotation Xrotation Yrotation
										End Site
										{
OFFSET 0 -0.670580 0.000000
										}
									}
								}
								JOINT RThumb
								{
OFFSET 0 0.000000 0.000000
CHANNELS 3 Zrotation Xrotation Yrotation
									End Site
									{
OFFSET 0 -0.680820 0.680820
									}
								}
							}
						}
					}
				}
			}
		}
	}
}
MOTION
Frames: 6
Frame Time: 0.008333333333333333
33.447042 16.861518 -10.025768 181.109331 67.237207 -152.072586 0.000000 0.000000 0.000000 -10.198617 -20.995117 -37.781335 1.672303 8.147228 23.162247 -0.290855 -19.778730 -11.336024 0.016828 0.836725 2.299706 0.000000 0.000000 0.000000 22.847583 9.528175 -7.950182 -1.068419 -6.571197 18.451011 0.094725 -8.307923 3.662247 -0.651008 5.159230 -14.363591 -5.837053 1.067584 -13.901152 -0.638459 2.531070 -4.885865 3.020227 1.430410 2.410689 -6.402862 -0.321003 3.251831 8.235765 1.182448 -20.029381 3.631509 0.709032 -6.655341 0.000000 0.000000 0.000000 156.999550 -58.215652 75.731983 27.557187 -38.705341 9.845579 34.124940 30.675725 -19.211057 0.000000 0.000000 0.000000 -7.125000 0.000000 0.000000 6.116353 52.705485 -1.163461 0.000000 0.000000 0.000000 -133.650301 -63.344082 -65.583097 -43.411628 -49.966203 -21.015447 -19.675613 -7.646227 -14.786443 0.000000 0.000000 0.000000 7.125000 0.000000 0.000000 5.326902 14.368801 3.856385
33.451259 16.859400 -10.013605 181.520255 67.232032 -151.404306 0.000000 0.000000 0.000000 -9.788432 -21.080311 -38.383338 1.729582 8.278487 23.563128 -0.296455 -19.619046 -11.144811 0.024321 1.003783 2.759226 0.000000 0.000000 0.000000 23.031747 10.019650 -7.980239 -1.049823 -6.515570 18.287900 0.098542 -8.568088 3.828191 -0.694094 5.325748 -14.840173 -5.892576 1.097132 -13.494973 -0.540001 2.541923 -4.994893 3.136905 1.450501 2.068463 -6.264226 -0.356537 2.878085 8.220236 1.180209 -20.005853 3.600523 0.714288 -6.580988 0.000000 0.000000 0.000000 157.339889 -57.812719 76.547734 27.301557 -38.465242 9.686160 33.602551 30.533188 -18.615622 0.000000 0.000000 0.000000 -7.125000 0.000000 0.000000 5.617149 51.916122 -0.965770 0.000000 0.000000 0.000000 -134.877593 -63.163705 -66.637727 -42.689144 -49.584584 -20.463918 -20.729544 -7.080134 -14.222336 0.000000 0.000000 0.000000 7.125000 0.000000 0.000000 4.586747 14.850550 3.268449
33.433941 16.859812 -10.018991 181.955578 67.211372 -150.816619 0.000000 0.000000 0.000000 -9.521305 -21.180846 -38.771243 1.770778 8.371330 23.847671 -0.308007 -19.453755 -10.889170 0.042486 1.330439 3.658583 0.000000 0.000000 0.000000 23.085219 8.926021 -8.755079 -1.061060 -6.549062 18.386102 0.057285 -7.231378 3.605375 -0.713634 5.398661 -15.049179 -5.557386 1.062704 -13.073666 -0.573045 2.421988 -5.085381 2.878815 1.397727 1.774694 -5.570257 -0.390628 2.895514 7.704462 1.133623 -20.273649 3.319599 0.684769 -6.665793 0.000000 0.000000 0.000000 157.490646 -57.239015 76.705665 26.828292 -38.014862 9.393210 35.997006 32.141824 -19.355477 0.000000 0.000000 0.000000 -7.125000 0.000000 0.000000 8.129573 53.268404 -1.663116 0.000000 0.000000 0.000000 -136.711055 -63.105615 -68.437700 -42.084901 -49.257790 -20.004848 -21.315430 -7.409705 -13.822193 0.000000 0.000000 0.000000 7.125000 0.000000 0.000000 4.169626 15.212655 2.936977
33.439686 16.856985 -10.008570 181.089566 67.707617 -151.225175 0.000000 0.000000 0.000000 -9.842904 -21.092936 -39.121912 1.745639 8.314943 23.674738 -0.286452 -19.202273 -10.879191 0.033742 1.185251 3.258760 0.000000 0.000000 0.000000 22.465230 8.118058 -9.885341 -1.120117 -6.722975 18.897186 0.045501 -6.045559 2.820598 -0.634023 5.094177 -14.177406 -6.373700 0.990498 -13.406797 -0.481800 2.446378 -4.829261 3.455134 1.393663 2.178068 -5.781818 -0.325350 2.749805 7.581928 1.312448 -21.188339 3.316288 0.827879 -6.947822 0.000000 0.000000 0.000000 160.345346 -56.867821 82.404993 25.045889 -36.248488 8.318048 33.651430 33.662586 -18.601849 0.000000 0.000000 0.000000 -7.125000 0.000000 0.000000 5.665320 51.907847 -0.966311 0.000000 0.000000 0.000000 -139.956998 -62.586378 -71.499748 -41.198664 -48.763049 -19.336262 -20.154638 -7.200235 -13.117834 0.000000 0.000000 0.000000 7.125000 0.000000 0.000000 4.939939 16.072756 3.391559
33.415999 16.871707 -10.013166 181.502349 67.914936 -150.627412 0.000000 0.000000 0.000000 -9.608385 -21.187237 -39.406756 1.743651 8.310391 23.661018 -0.283108 -18.993811 -10.731147 0.038845 1.272155 3.497953 0.000000 0.000000 0.000000 22.430785 7.229471 -10.610543 -1.123228 -6.731928 18.923633 0.028347 -4.982114 2.472687 -0.555500 4.774336 -13.266004 -5.869250 0.964716 -12.963377 -0.537003 2.310670 -4.872054 3.077444 1.327962 1.932785 -6.091178 -0.209346 1.754414 7.851200 1.549389 -20.835791 3.434975 0.974858 -6.676155 0.000000 0.000000 0.000000 160.809816 -56.325150 83.417272 24.131230 -35.302426 7.782350 34.140580 34.488807 -18.670070 0.000000 0.000000 0.000000 -7.125000 0.000000 0.000000 6.175810 52.084423 -1.080751 0.000000 0.000000 0.000000 -144.129123 -62.791774 -76.076688 -38.256060 -47.002061 -17.152635 -20.698100 -7.958125 -15.084329 0.000000 0.000000 0.000000 7.125000 0.000000 0.000000 4.647372 13.944150 3.400954
33.403512 16.873746 -10.015742 182.007940 68.243240 -150.003072 0.000000 0.000000 0.000000 -9.272379 -21.358745 -39.564072 1.761250 8.350101 23.782602 -0.242960 -18.409651 -10.629063 0.046847 1.396812 3.841446 0.000000 0.000000 0.000000 22.439821 6.868538 -10.884717 -1.104154 -6.676561 18.760532 0.011113 -4.267924 2.556221 -0.596747 4.945388 -13.752865 -5.781006 0.962404 -13.019513 -0.383114 2.292484 -4.833782 3.189341 1.314238 2.002022 -5.627288 -0.185657 1.855446 7.253925 1.512552 -21.004553 3.164309 0.964071 -6.744871 0.000000 0.000000 0.000000 159.488875 -55.727383 81.950092 24.048307 -35.210605 7.736344 33.985556 33.061807 -18.377444 0.000000 0.000000 0.000000 -7.125000 0.000000 0.000000 6.067340 51.731337 -1.060118 0.000000 0.000000 0.000000 -146.387052 -62.967869 -78.615244 -38.406996 -47.095775 -17.263587 -18.464765 -7.698860 -14.225113 0.000000 0.000000 0.000000 7.125000 0.000000 0.000000 6.131566 15.075286 4.351315
